HIERARCHY
ROOT SimulationBone
{
	OFFSET 0.000000 0.000000 0.000000
	CHANNELS 6 Xposition Yposition Zposition Zrotation Yrotation Xrotation 
	JOINT Hips
	{
		OFFSET 0.000000 0.000000 0.000000
		CHANNELS 6 Xposition Yposition Zposition Zrotation Yrotation Xrotation 
		JOINT RightUpLeg
		{
			OFFSET 0.103455 1.857827 10.548507
			CHANNELS 3 Zrotation Yrotation Xrotation
			JOINT RightLeg
			{
				OFFSET 43.500000 -0.000031 0.000008
				CHANNELS 3 Zrotation Yrotation Xrotation
				JOINT RightFoot
				{
					OFFSET 42.372192 0.000011 -0.000014
					CHANNELS 3 Zrotation Yrotation Xrotation
					JOINT RightToe
					{
						OFFSET 17.299997 -0.000002 0.000013
						CHANNELS 3 Zrotation Yrotation Xrotation
						End Site
						{
							OFFSET 0.000000 0.000000 0.000000
						}
					}
				}
			}
		}
		JOINT LeftUpLeg
		{
			OFFSET 0.103457 1.857826 -10.548499
			CHANNELS 3 Zrotation Yrotation Xrotation
			JOINT LeftLeg
			{
				OFFSET 43.500046 -0.000019 0.000015
				CHANNELS 3 Zrotation Yrotation Xrotation
				JOINT LeftFoot
				{
					OFFSET 42.372261 -0.000004 0.000013
					CHANNELS 3 Zrotation Yrotation Xrotation
					JOINT LeftToe
					{
						OFFSET 17.299992 -0.000006 0.000004
						CHANNELS 3 Zrotation Yrotation Xrotation
						End Site
						{
							OFFSET 0.000000 0.000000 0.000000
						}
					}
				}
			}
		}
		JOINT Spine
		{
			OFFSET 6.901968 -2.603730 -0.000002
			CHANNELS 3 Zrotation Yrotation Xrotation
			JOINT Spine1
			{
				OFFSET 12.588100 -0.000001 0.000009
				CHANNELS 3 Zrotation Yrotation Xrotation
				JOINT Spine2
				{
					OFFSET 12.343201 0.000005 -0.000005
					CHANNELS 3 Zrotation Yrotation Xrotation
					JOINT Neck
					{
						OFFSET 25.832893 -0.000008 -0.000006
						CHANNELS 3 Zrotation Yrotation Xrotation
						JOINT Head
						{
							OFFSET 11.766606 0.000005 0.000008
							CHANNELS 3 Zrotation Yrotation Xrotation
							End Site
							{
								OFFSET 0.000000 0.000000 0.000000
							}
						}
					}
					JOINT RightShoulder
					{
						OFFSET 19.745903 -1.480373 6.000100
						CHANNELS 3 Zrotation Yrotation Xrotation
						JOINT RightArm
						{
							OFFSET 11.284123 -0.000007 -0.000024
							CHANNELS 3 Zrotation Yrotation Xrotation
							JOINT RightForeArm
							{
								OFFSET 33.000053 0.000004 0.000036
								CHANNELS 3 Zrotation Yrotation Xrotation
								JOINT RightHand
								{
									OFFSET 25.200006 0.000021 -0.000003
									CHANNELS 3 Zrotation Yrotation Xrotation
									End Site
									{
										OFFSET 0.000000 0.000000 0.000000
									}
								}
							}
						}
					}
					JOINT LeftShoulder
					{
						OFFSET 19.746101 -1.480381 -6.000079
						CHANNELS 3 Zrotation Yrotation Xrotation
						JOINT LeftArm
						{
							OFFSET 11.284133 -0.000015 -0.000008
							CHANNELS 3 Zrotation Yrotation Xrotation
							JOINT LeftForeArm
							{
								OFFSET 33.000099 0.000016 0.000006
								CHANNELS 3 Zrotation Yrotation Xrotation
								JOINT LeftHand
								{
									OFFSET 25.199781 0.000142 0.000425
									CHANNELS 3 Zrotation Yrotation Xrotation
									End Site
									{
										OFFSET 0.000000 0.000000 0.000000
									}
								}
							}
						}
					}
				}
			}
		}
	}
}
MOTION
Frames: 5
Frame Time: 0.033333
-165.099024 0.000000 448.100645 180.000000 -32.310872 180.000000 -0.688882 85.164726 -0.941813 96.379706 3.732245 -174.459478 176.888540 -2.207595 -178.419376 -73.762362 2.768431 6.296999 65.672699 -6.094974 -3.412047 21.454550 0.003113 0.000016 156.396743 -6.402295 -178.621782 -41.595012 4.846946 4.475273 77.317052 -4.534203 -4.675796 21.454555 -0.003095 0.000000 11.055354 3.059693 -1.057501 12.066812 6.212879 -1.791864 11.746829 6.201802 -1.829492 3.465096 7.217455 8.207913 -19.472465 -20.999333 17.786839 -175.670881 -78.035273 -5.897229 -15.973763 51.970885 25.244056 -70.431914 -12.992890 2.405649 -2.095689 -2.364962 36.468118 179.090961 77.343887 0.588994 6.424827 -49.500184 -45.938746 -37.643164 14.813594 -1.385797 2.451366 -5.106196 -62.629693 
-168.221658 0.000000 450.773550 180.000000 -33.466181 180.000000 -0.470751 86.098549 -0.279368 96.872410 3.957050 -173.877362 171.386836 -1.852096 -176.550555 -77.506453 3.284056 1.490747 68.991201 -3.037262 -5.060907 21.454555 0.003102 0.000019 160.856911 -6.734803 -176.370374 -40.002014 3.634172 4.195833 79.517479 -4.160267 -4.550574 21.454553 -0.003090 0.000000 10.659572 2.977641 -0.673996 11.294064 6.006739 -1.054879 10.974120 6.000127 -1.091269 2.794874 7.049807 6.840875 -19.445151 -21.153552 16.448002 -174.766769 -77.553205 -6.813745 -12.660661 53.023821 27.239990 -63.819034 -15.602380 2.318916 -3.535756 -5.868868 35.928311 179.772929 78.133389 1.297953 -0.852365 -49.607643 -34.381950 -36.189628 16.036536 -1.429971 4.028166 -2.879022 -73.400259 
-171.317462 0.000000 453.394853 180.000000 -34.561541 180.000000 -0.465867 87.465660 0.292960 97.323886 3.895562 -175.029873 166.740600 -1.796901 -177.242548 -77.096915 3.512531 -3.089846 70.707669 0.683919 -4.226623 21.454565 0.003107 0.000017 166.385198 -7.655805 -177.674121 -35.658171 3.113394 4.725133 79.819824 -4.408086 -4.196961 21.454551 -0.003088 -0.000000 10.388708 2.599349 -0.059685 10.778424 5.192881 0.123553 10.458912 5.193401 0.092101 2.729540 7.040342 6.094609 -19.097276 -20.087793 15.185114 -170.674065 -77.864751 -10.986823 -10.004663 54.603107 27.056463 -57.198306 -16.234199 2.111242 -3.094888 -5.978406 33.754952 -179.458986 78.553302 2.088004 -6.478206 -48.858846 -24.024977 -38.985770 15.990371 -1.496049 5.527076 -1.006621 -77.883554 
-174.387056 0.000000 455.965499 180.000000 -35.593840 180.000000 -0.564637 88.784111 0.626391 96.937255 3.378146 -176.593431 162.368937 -1.475797 -178.741857 -73.310640 3.434280 -6.522894 72.779900 3.490640 -3.489678 21.454555 0.003118 0.000014 171.204852 -7.460800 -179.235884 -30.884869 3.142294 4.825706 79.402363 -4.484933 -4.139946 21.454551 -0.003095 0.000000 9.949436 2.080394 0.427836 9.911013 4.116477 1.033072 9.592077 4.122507 1.008150 2.875499 6.611008 5.753896 -18.639827 -19.061757 14.264893 -165.882386 -77.205221 -15.873001 -5.850249 54.650399 28.334283 -52.189755 -16.180652 1.931698 -0.365346 -4.658094 28.998282 -179.569963 79.770783 1.994976 -11.970872 -47.312222 -20.975400 -42.205296 15.816363 -1.570514 3.572368 2.238297 -70.676195 
-177.431058 0.000000 458.486435 180.000000 -36.560831 180.000000 -0.674602 89.817207 0.814697 96.226791 2.774314 -178.216026 158.677261 -1.283296 179.237005 -66.695991 3.315693 -8.285397 73.167336 4.752793 -3.625675 21.454563 0.003106 0.000014 175.368454 -6.546908 -179.836313 -26.518650 3.495806 4.239571 78.652927 -4.183877 -4.376636 21.454550 -0.003082 0.000000 9.506124 1.563411 0.821830 9.026177 3.057985 1.763693 8.707747 3.068451 1.745177 2.467480 5.977722 5.778457 -18.010823 -18.375347 13.823507 -160.048257 -76.293158 -21.836624 -2.057508 53.759616 30.587021 -48.099439 -15.932164 1.781555 1.573611 -3.628872 24.473671 175.384054 81.527638 -3.087019 -15.934536 -46.099286 -19.325569 -46.436458 16.117288 -1.713042 1.739869 4.820269 -59.498884 
